<!DOCTYPE svg PUBLIC "-//W3C//DTD SVG 1.1//EN" "http://www.w3.org/Graphics/SVG/1.1/DTD/svg11.dtd">
<!-- Uploaded to: SVG Repo, www.svgrepo.com, Transformed by: SVG Repo Mixer Tools -->
<svg width="800px" height="800px" viewBox="-2.4 -2.4 28.80 28.80" xmlns="http://www.w3.org/2000/svg" fill="#000000" stroke="#000000" stroke-width="0.00024000000000000003">
<g id="SVGRepo_bgCarrier" stroke-width="0">
<path transform="translate(-2.4, -2.4), scale(0.8999999999999999)" d="M16,28.2033216531078C19.631535523616087,28.723265344611676,23.93871595451015,29.123561685468758,26.438729202794008,26.43872920279401C28.913420004916254,23.78109118640545,27.33190267838995,19.631273981821582,27.363266052057345,16C27.39512910710349,12.31087254842426,29.297317741417125,7.918270618643806,26.620619144093336,5.379380855906666C23.950146498077714,2.8463965036835828,19.672414364167565,4.975177503658335,16,5.221767486383518C12.748783997228845,5.440075449063788,9.287332387609737,4.714446893762002,6.715913331737783,6.715913331737781C3.8870501656525005,8.917761634765808,1.8476373931208738,12.428211154345059,2.152477029711008,15.999999999999998C2.4434400265752205,19.40919703986933,5.609001398657289,21.561747556017227,8.176026220546426,23.82397377945357C10.50702830390155,25.878201691425996,12.924367908593046,27.762969220117814,16,28.2033216531078" fill="#7ed0ec" strokewidth="0"/>
</g>
<g id="SVGRepo_tracerCarrier" stroke-linecap="round" stroke-linejoin="round" stroke="#CCCCCC" stroke-width="0.43200000000000005"/>
<g id="SVGRepo_iconCarrier">
<path d="M19.95 8.719a5.48 5.48 0 0 0-8.723-2.429 3.41 3.41 0 0 0-5.466.166 2.722 2.722 0 0 0-3.337 3.155 3.05 3.05 0 0 0-.414 4.848c0 .035-.01.068-.01.104A3.438 3.438 0 0 0 5.438 18h12.75a4.807 4.807 0 0 0 1.761-9.281zM18.187 17H5.438a2.438 2.438 0 0 1-.066-4.874h.716l.268-.58a2.443 2.443 0 0 1 2.207-1.421 2.41 2.41 0 0 1 .593.085l.986.248.232-.99a4.494 4.494 0 0 1 8.63-.425l.149.436.43.17A3.807 3.807 0 0 1 18.187 17zM3.525 10.094l-.118-.659a1.775 1.775 0 0 1-.033-.31A1.725 1.725 0 0 1 5.53 7.429l.656.156.39-.55a2.42 2.42 0 0 1 3.95-.03A5.478 5.478 0 0 0 9.4 9.24a3.369 3.369 0 0 0-3.952 1.886l-.011-.001a3.437 3.437 0 0 0-3.16 2.086 2.038 2.038 0 0 1 .684-2.757z"/>
<path fill="none" d="M0 0h24v24H0z"/>
</g>
</svg>